<svg width="23" height="22" viewBox="0 0 23 22" fill="none" xmlns="http://www.w3.org/2000/svg">
<path d="M4.99917 9.58833C6.73917 12.89 9.5425 15.585 12.9621 17.2767L15.6204 14.71C15.9467 14.395 16.43 14.29 16.8529 14.43C18.2063 14.8617 19.6683 15.095 21.1667 15.095C21.8313 15.095 22.375 15.62 22.375 16.2617V20.3333C22.375 20.975 21.8313 21.5 21.1667 21.5C9.82042 21.5 0.625 12.6217 0.625 1.66667C0.625 1.025 1.16875 0.5 1.83333 0.5H6.0625C6.72708 0.5 7.27083 1.025 7.27083 1.66667C7.27083 3.125 7.5125 4.525 7.95958 5.83167C8.0925 6.24 7.99583 6.695 7.6575 7.02167L4.99917 9.58833Z" fill="white"/>
</svg>
